<svg version="1.1" xmlns="http://www.w3.org/2000/svg" viewBox="0 0 120.213 30.84" enable-background="new 0 0 120.213 30.84"><g><polygon fill="#204289" points="25.029,29.971 25.029,0.847 42.388,0.847 42.388,7.885 33.115,7.887 33.115,11.992 41.479,11.991 
41.479,18.43 33.115,18.439 33.115,23.051 42.369,23.053 42.369,29.971 	"></polygon><path fill="#204289" d="M12.139,0.828h-0.958L0,0.843v29.128h8.01l0.009-9.536l3.146,0.001l0.933,0.006
c8.356-0.015,10.581-5.957,10.581-9.813C22.678,6.808,20.471,0.818,12.139,0.828 M11.73,13.901
c-0.183,0.061-0.354,0.081-0.542,0.096l-0.831,0.002l-2.303,0.002l0.003-6.704l2.29-0.001c0.309-0.002,0.682,0.018,0.891,0.041
c2.726,0.226,3.037,2.054,3.032,3.333C14.271,11.401,14.207,13.35,11.73,13.901"></path><path fill="#204289" d="M93.658,28.634c-2.584,1.829-5.266,2.194-7.781,2.206c-8.18,0.003-14.797-5.619-14.79-15.399
C71.097,5.258,78.369,0.004,85.802,0c2.563-0.015,5.425,0.671,7.864,2.311l-0.003,8.478c-1.066-1.258-3.368-3.489-6.824-3.488
c-4.67,0.009-7.37,3.805-7.374,8.365c0,5.116,3.363,7.904,7.363,7.897c2.942-0.005,5.313-1.577,6.83-3.149V28.634z"></path><path fill="#204289" d="M120.213,19.939c0.009-5.942-3.857-10.831-11.927-10.808c-8.054,0-11.947,4.879-11.951,10.816
c-0.013,6.135,3.988,10.762,11.933,10.756C116.326,30.701,120.213,25.875,120.213,19.939 M112.708,19.943
c0.003,0.771-0.069,5.569-4.433,5.572c-4.386,0.003-4.432-4.796-4.438-5.572c0.008-3.215,1.443-5.571,4.443-5.581
C111.224,14.372,112.715,16.713,112.708,19.943"></path><path fill="#204289" d="M63.461,19.641c4.568-1.719,5.919-5.992,5.919-9.009c0-3.678-2.037-9.331-9.626-9.77
c-0.501-0.028-0.901-0.016-1.092-0.018h-11.96v29.126h8.041l0.015-9.535h0.008l2.863,4.563l3.254,4.972h9.738L63.461,19.641z
M58.432,13.917c-0.182,0.061-0.353,0.081-0.541,0.096l-0.83,0.002l-2.304,0.002l0.004-6.704l2.29-0.001
c0.306-0.002,0.68,0.018,0.89,0.041c2.726,0.226,3.037,2.054,3.032,3.333C60.973,11.417,60.909,13.365,58.432,13.917"></path></g></svg>